<svg xmlns="http://www.w3.org/2000/svg" viewBox="0 0 200 200" fill="none">
    <circle cx="100" cy="95" r="50" fill="#5B23FF"/>
    <path d="M100 45C100 45 82 68 82 95C82 122 100 145 100 145" stroke="white" stroke-width="2.5" opacity="0.25"/>
    <path d="M100 45C100 45 118 68 118 95C118 122 100 145 100 145" stroke="white" stroke-width="2.5" opacity="0.25"/>
    <line x1="50" y1="95" x2="150" y2="95" stroke="white" stroke-width="2.5" opacity="0.25"/>
    <path d="M55 72C75 72 87 82 100 82C113 82 125 72 145 72" stroke="white" stroke-width="2.5" fill="none" opacity="0.25"/>
    <path d="M55 118C75 118 87 108 100 108C113 108 125 118 145 118" stroke="white" stroke-width="2.5" fill="none" opacity="0.25"/>
    <circle cx="138" cy="142" r="16" fill="#4EFFB8"/>
    <path d="M132 142L136 146L144 138" stroke="#5B23FF" stroke-width="2.5" stroke-linecap="round"/>
  </svg>