<svg width="128" height="128" viewBox="0 0 128 128" fill="none" xmlns="http://www.w3.org/2000/svg">
<path d="M128 57.5868V110.39C124.279 111.668 120.133 112.732 115.562 113.797C110.99 114.861 106.206 115.713 101.316 116.459C96.4255 117.204 91.5352 117.736 86.6448 118.161C81.7544 118.587 77.0766 118.8 72.7178 118.8C65.9138 118.8 59.4287 118.374 53.2626 117.416C47.0964 116.459 41.2492 115.074 35.8274 113.265C30.4054 111.348 25.515 109.006 21.1562 106.025C16.7973 103.044 12.9702 99.6378 9.78076 95.5924C6.69769 91.547 4.2525 86.9694 2.44519 81.7529C0.637876 76.5365 0 70.8941 0 64.4002C0 58.0127 0.850501 52.1574 2.65781 46.941C4.46513 41.7245 7.01663 37.1469 10.206 33.1015C13.3954 29.0561 17.3289 25.6493 21.9004 22.6686C26.4718 19.7942 31.4685 17.3456 36.8905 15.4294C42.3124 13.5131 48.1596 12.1292 54.3257 11.2775C60.4918 10.4258 66.8706 10 73.3557 10C83.4554 10 92.9172 10.8517 101.529 12.555C110.246 14.2583 118.22 16.494 125.448 19.2619V44.599C122.578 43.0021 119.389 41.4052 115.774 39.9148C112.159 38.4243 108.332 37.0404 104.08 35.8694C99.8275 34.6983 95.3623 33.7402 90.5783 33.1015C85.7942 32.3562 80.6912 32.0368 75.3756 32.0368C68.7842 32.0368 62.937 32.4627 58.0467 33.4209C53.1563 34.3789 48.9038 35.6564 45.3955 37.2533C41.8871 38.8502 39.0168 40.7664 36.7842 42.8956C34.5516 45.0248 32.7442 47.2604 31.4685 49.7089C30.1928 52.1574 29.236 54.606 28.8107 57.0546C28.2792 59.6095 28.0665 61.9516 28.0665 64.4002C28.0665 66.4229 28.2792 68.6585 28.7044 71.1071C29.1296 73.5556 29.9802 75.8977 31.1495 78.3462C32.319 80.7947 34.02 83.0304 36.0399 85.266C38.1662 87.5016 40.9303 89.4179 44.2261 91.1212C47.628 92.8245 51.6679 94.2085 56.452 95.1666C61.2361 96.1248 66.8706 96.657 73.462 96.657C76.7576 96.657 79.6281 96.5506 82.0732 96.3376C84.5185 96.1248 86.7511 95.9118 88.771 95.486C90.7909 95.1666 92.7045 94.7408 94.5119 94.2085C96.3192 93.6762 98.1265 93.1439 100.04 92.6116V80.2625H68.8905V57.5868H128Z" fill="#0066FF"/>
</svg>
