<svg width="16" height="16" viewBox="0 0 16 16" fill="none" xmlns="http://www.w3.org/2000/svg">
<path d="M16 6.94835V13.5488C15.5349 13.7085 15.0166 13.8415 14.4452 13.9746C13.8737 14.1077 13.2758 14.2141 12.6645 14.3073C12.0532 14.4005 11.4419 14.467 10.8306 14.5202C10.2193 14.5734 9.63458 14.6 9.08972 14.6C8.23922 14.6 7.42859 14.5468 6.65783 14.4271C5.88705 14.3073 5.15615 14.1343 4.47842 13.9081C3.80068 13.6685 3.18938 13.3758 2.64452 13.0032C2.09967 12.6306 1.62127 12.2047 1.22259 11.6991C0.837212 11.1934 0.531563 10.6212 0.305649 9.96911C0.0797344 9.31706 0 8.61177 0 7.80003C0 7.00159 0.106313 6.26968 0.332227 5.61763C0.558141 4.96557 0.877079 4.39336 1.27575 3.88769C1.67443 3.38201 2.16611 2.95616 2.73755 2.58357C3.30898 2.22427 3.93357 1.9182 4.61131 1.67867C5.28905 1.43914 6.01994 1.26615 6.79072 1.15969C7.56148 1.05323 8.35882 1 9.16946 1C10.4319 1 11.6146 1.10646 12.6911 1.31937C13.7808 1.53229 14.7775 1.81174 15.6811 2.15773V5.32487C15.3223 5.12526 14.9236 4.92564 14.4718 4.73935C14.0199 4.55304 13.5415 4.38005 13.01 4.23367C12.4784 4.08728 11.9203 3.96753 11.3223 3.88769C10.7243 3.79452 10.0864 3.7546 9.42195 3.7546C8.59802 3.7546 7.86712 3.80784 7.25584 3.92761C6.64454 4.04736 6.11297 4.20705 5.67444 4.40666C5.23589 4.60628 4.8771 4.8458 4.59802 5.11195C4.31895 5.3781 4.09303 5.65755 3.93357 5.96362C3.77409 6.26968 3.6545 6.57575 3.60134 6.88182C3.5349 7.20119 3.50831 7.49395 3.50831 7.80003C3.50831 8.05286 3.5349 8.33231 3.58805 8.63839C3.6412 8.94445 3.74752 9.23721 3.89369 9.54328C4.03988 9.84934 4.2525 10.1288 4.50499 10.4083C4.77077 10.6877 5.11629 10.9272 5.52826 11.1402C5.9535 11.3531 6.45849 11.5261 7.0565 11.6458C7.65451 11.7656 8.35882 11.8321 9.18275 11.8321C9.5947 11.8321 9.95351 11.8188 10.2592 11.7922C10.5648 11.7656 10.8439 11.739 11.0964 11.6857C11.3489 11.6458 11.5881 11.5926 11.814 11.5261C12.0399 11.4595 12.2658 11.393 12.505 11.3264V9.78281H8.61131V6.94835H16Z" fill="#0066FF"/>
</svg>
