<svg width="512" height="512" viewBox="0 0 512 512" fill="none" xmlns="http://www.w3.org/2000/svg">
<path d="M512 228.347V439.56C497.115 444.671 480.531 448.929 462.247 453.187C443.959 457.445 424.825 460.852 405.263 463.835C385.702 466.815 366.141 468.943 346.579 470.646C327.017 472.349 308.306 473.2 290.871 473.2C263.655 473.2 237.715 471.497 213.05 467.666C188.386 463.835 164.997 458.297 143.31 451.058C121.622 443.393 102.06 434.025 84.6247 422.101C67.1894 410.178 51.8807 396.551 39.123 380.37C26.7908 364.188 17.01 345.877 9.78076 325.011C2.5515 304.146 0 281.577 0 255.601C0 230.051 3.402 206.63 10.6313 185.764C17.8605 164.898 28.0665 146.588 40.824 130.406C53.5816 114.224 69.3156 100.597 87.6016 88.6743C105.887 77.1766 125.874 67.3825 147.562 59.7175C169.249 52.0525 192.638 46.5167 217.303 43.11C241.967 39.7033 267.482 38 293.423 38C333.822 38 371.669 41.4067 406.114 48.22C440.985 55.0333 472.879 63.9758 501.794 75.0475V176.396C490.313 170.008 477.557 163.621 463.097 157.659C448.637 151.697 433.328 146.161 416.32 141.477C399.31 136.793 381.449 132.961 362.313 130.406C343.177 127.425 322.765 126.147 301.502 126.147C275.137 126.147 251.748 127.851 232.187 131.683C212.625 135.516 195.615 140.626 181.582 147.013C167.549 153.401 156.067 161.066 147.137 169.583C138.206 178.099 130.977 187.042 125.874 196.836C120.771 206.63 116.944 216.424 115.243 226.218C113.117 236.438 112.266 245.806 112.266 255.601C112.266 263.692 113.117 272.634 114.818 282.428C116.519 292.222 119.921 301.591 124.598 311.385C129.276 321.179 136.08 330.121 144.16 339.064C152.665 348.006 163.721 355.672 176.904 362.485C190.512 369.298 206.672 374.834 225.808 378.666C244.944 382.499 267.482 384.628 293.848 384.628C307.03 384.628 318.512 384.202 328.293 383.35C338.074 382.499 347.004 381.647 355.084 379.944C363.164 378.666 370.818 376.963 378.047 374.834C385.277 372.705 392.506 370.576 400.161 368.446V319.05H275.562V228.347H512Z" fill="#0066FF"/>
</svg>
