<svg width="838" height="930" viewBox="0 0 838 930" fill="none" xmlns="http://www.w3.org/2000/svg">
<path d="M837.481 447.141V943.298C802.453 955.302 763.422 965.305 720.388 975.308C677.353 985.311 632.318 993.314 586.281 1000.32C540.244 1007.32 494.207 1012.32 448.17 1016.32C402.134 1020.32 358.098 1022.32 317.066 1022.32C253.014 1022.32 191.966 1018.32 133.919 1009.32C75.8728 1000.32 20.8289 987.312 -30.2119 970.307C-81.2527 952.301 -127.289 930.294 -168.322 902.285C-209.355 874.276 -245.384 842.266 -275.408 804.254C-304.431 766.242 -327.449 723.229 -344.463 674.213C-361.477 625.198 -367.481 572.181 -367.481 511.162C-367.481 451.143 -359.475 396.125 -342.461 347.11C-325.448 298.094 -301.429 255.081 -271.405 217.069C-241.381 179.057 -204.351 147.046 -161.317 119.038C-118.282 92.0291 -71.2447 69.0218 -20.2039 51.0161C30.8369 33.0104 85.8808 20.0063 143.927 12.0038C201.974 4.00127 262.022 0 323.07 0C418.146 0 507.218 8.00253 588.282 24.0076C670.348 40.0126 745.408 61.0193 813.462 87.0275V325.103C786.441 310.098 756.417 295.093 722.39 281.089C688.362 267.084 652.333 254.08 612.302 243.077C572.27 232.073 530.236 223.071 485.2 217.069C440.164 210.066 392.126 207.065 342.086 207.065C280.036 207.065 224.992 211.067 178.955 220.07C132.918 229.072 92.8864 241.076 59.8601 256.081C26.8337 271.086 -0.187927 289.091 -21.2047 309.098C-42.2215 329.104 -59.2351 350.111 -71.2447 373.118C-83.2543 396.125 -92.2615 419.132 -96.2647 442.14C-101.269 466.147 -103.27 488.154 -103.27 511.162C-103.27 530.168 -101.269 551.174 -97.2655 574.182C-93.2623 597.189 -85.2559 619.196 -74.2471 642.203C-63.2383 665.21 -47.2255 686.217 -28.2103 707.224C-8.19434 728.23 17.8264 746.236 48.8513 762.241C80.8768 778.246 118.907 791.25 163.943 800.253C208.979 809.256 262.022 814.257 324.071 814.257C355.096 814.257 382.118 813.257 405.136 811.256C428.154 809.256 449.171 807.255 468.186 803.254C487.202 800.253 505.216 796.252 522.23 791.25C539.243 786.249 556.257 781.247 574.271 776.245V660.209H281.037L281.037 447.141L837.481 447.141Z" fill="#0066FF"/>
</svg>
