<svg width="1205" height="1023" viewBox="0 0 1205 1023" fill="none" xmlns="http://www.w3.org/2000/svg">
<path d="M1204.96 447.141V943.298C1169.93 955.302 1130.9 965.305 1087.87 975.308C1044.83 985.311 999.799 993.314 953.762 1000.32C907.725 1007.32 861.689 1012.32 815.652 1016.32C769.615 1020.32 725.58 1022.32 684.547 1022.32C620.496 1022.32 559.447 1018.32 501.401 1009.32C443.354 1000.32 388.31 987.312 337.27 970.307C286.229 952.301 240.192 930.294 199.159 902.285C158.126 874.276 122.098 842.266 92.0736 804.254C63.0504 766.242 40.032 723.229 23.0184 674.213C6.0048 625.198 0 572.181 0 511.162C0 451.143 8.0064 396.125 25.02 347.11C42.0336 298.094 66.0528 255.081 96.0768 217.069C126.101 179.057 163.13 147.046 206.165 119.038C249.199 92.0291 296.237 69.0218 347.278 51.0161C398.318 33.0104 453.362 20.0063 511.409 12.0038C569.455 4.00127 629.503 0 690.552 0C785.628 0 874.699 8.00253 955.764 24.0076C1037.83 40.0127 1112.89 61.0193 1180.94 87.0275V325.103C1153.92 310.098 1123.9 295.093 1089.87 281.089C1055.84 267.084 1019.81 254.08 979.783 243.077C939.751 232.073 897.717 223.071 852.681 217.069C807.645 210.066 759.607 207.065 709.567 207.065C647.517 207.065 592.473 211.067 546.437 220.07C500.4 229.072 460.368 241.076 427.342 256.081C394.315 271.086 367.294 289.091 346.277 309.098C325.26 329.104 308.246 350.111 296.237 373.118C284.227 396.125 275.22 419.132 271.217 442.14C266.213 466.147 264.211 488.154 264.211 511.162C264.211 530.168 266.213 551.174 270.216 574.182C274.219 597.189 282.226 619.196 293.234 642.203C304.243 665.21 320.256 686.217 339.271 707.224C359.287 728.23 385.308 746.236 416.333 762.241C448.358 778.246 486.389 791.25 531.425 800.253C576.461 809.256 629.503 814.257 691.553 814.257C722.577 814.257 749.599 813.257 772.617 811.256C795.636 809.256 816.653 807.255 835.668 803.254C854.683 800.253 872.697 796.252 889.711 791.25C906.725 786.249 923.738 781.247 941.753 776.245V660.209H648.518L648.518 447.141L1204.96 447.141Z" fill="#0066FF"/>
</svg>
