<svg width="186" height="186" viewBox="0 0 186 186" fill="none" xmlns="http://www.w3.org/2000/svg">
<path d="M183 93C183 43.2944 142.706 3 93 3C43.2944 3 3 43.2944 3 93C3 142.706 43.2944 183 93 183C142.706 183 183 142.706 183 93Z" stroke="#FF0032" stroke-width="5" stroke-miterlimit="10"/>
<path d="M127.26 142.82L97.76 113.32C96.8257 112.383 96.3011 111.113 96.3011 109.79C96.3011 108.467 96.8257 107.197 97.76 106.26L127.24 76.78C129.369 74.6498 130.565 71.7615 130.565 68.75C130.565 65.7385 129.369 62.8502 127.24 60.72C126.185 59.6645 124.932 58.8271 123.554 58.2558C122.175 57.6845 120.697 57.3905 119.205 57.3905C117.713 57.3905 116.235 57.6845 114.856 58.2558C113.478 58.8271 112.225 59.6645 111.17 60.72L70.1 101.78C69.0444 102.835 68.2071 104.088 67.6358 105.466C67.0645 106.845 66.7705 108.323 66.7705 109.815C66.7705 111.307 67.0645 112.785 67.6358 114.164C68.2071 115.542 69.0444 116.795 70.1 117.85L78.1 125.85L111.1 158.85C113.233 160.977 116.123 162.171 119.135 162.171C122.147 162.171 125.037 160.977 127.17 158.85C129.302 156.733 130.508 153.858 130.525 150.854C130.542 147.849 129.368 144.961 127.26 142.82Z" fill="#FF0032"/>
<path d="M78.13 35.14C78.13 28.866 73.044 23.78 66.77 23.78C60.496 23.78 55.41 28.866 55.41 35.14V75.37C55.41 81.644 60.496 86.73 66.77 86.73C73.044 86.73 78.13 81.644 78.13 75.37V35.14Z" fill="#FF0032"/>
</svg>
