<svg xmlns="http://www.w3.org/2000/svg" viewBox="0 0 482.78 91.8"><defs><style>.cls-1{fill:#000a39;}</style></defs><g fill="#000a39" id="Слой_2" data-name="Слой 2"><g id="Слой_1-2" data-name="Слой 1"><path fill="#000a39" d="M244.32,23.6h-.83a6.28,6.28,0,0,0-6.28,6.28h0a.37.37,0,0,1-.63.25C231.15,24.71,224,22,215.39,22a32,32,0,0,0-23.84,10.25,34.49,34.49,0,0,0-9.82,24.67,34.63,34.63,0,0,0,9.82,24.79A31.92,31.92,0,0,0,215.39,91.8c8.64,0,15.76-2.74,21.19-8.16a.37.37,0,0,1,.63.26h0a6.28,6.28,0,0,0,6.28,6.27h.83a7.62,7.62,0,0,0,7.62-7.62V31.23A7.62,7.62,0,0,0,244.32,23.6Zm-13,48a21,21,0,0,1-29,0,20.17,20.17,0,0,1-5.84-14.71,19.62,19.62,0,0,1,5.84-14.59,20.67,20.67,0,0,1,29,0,19.64,19.64,0,0,1,5.86,14.61A20.19,20.19,0,0,1,231.35,71.62Z"/><path fill="#000a39" d="M473.85,25.23H439a7.12,7.12,0,0,0,0,14.24H460.1a.37.37,0,0,1,.35.21.36.36,0,0,1,0,.4L432,80.16a7.06,7.06,0,0,0-1.31,4.12v.41a7.12,7.12,0,0,0,7.11,7.11h37.91a7.12,7.12,0,1,0,0-14.23H451.94a.37.37,0,0,1-.35-.21.36.36,0,0,1,0-.4l28.66-40.2a6.6,6.6,0,0,0,1.24-3.86,7.68,7.68,0,0,0-7.67-7.67Z"/><path fill="#ff0032" d="M127.06,77.32,107.93,58.19a3.25,3.25,0,0,1,0-4.58L127.05,34.5a7.38,7.38,0,0,0,0-10.42h0a7.36,7.36,0,0,0-10.42,0L90,50.71a7.36,7.36,0,0,0,0,10.42l5.21,5.21v0l21.42,21.42a7.38,7.38,0,0,0,10.42,0h0A7.36,7.36,0,0,0,127.06,77.32Z"/><rect  fill="#ff0032" x="80.47" y="0.13" width="14.74" height="40.82" rx="7.37"/><path fill="#000a39" d="M410.52,23.6h-.83a6.28,6.28,0,0,0-6.28,6.28h0a.36.36,0,0,1-.62.25C397.36,24.71,390.24,22,381.6,22a32,32,0,0,0-23.84,10.25,34.44,34.44,0,0,0-9.82,24.67,34.59,34.59,0,0,0,9.82,24.79A31.89,31.89,0,0,0,381.6,91.8c8.64,0,15.76-2.74,21.19-8.16a.36.36,0,0,1,.62.26h0a6.28,6.28,0,0,0,6.28,6.27h.83a7.62,7.62,0,0,0,7.63-7.62V31.23A7.62,7.62,0,0,0,410.52,23.6Zm-13,48a21,21,0,0,1-29,0,20.14,20.14,0,0,1-5.85-14.71,19.59,19.59,0,0,1,5.85-14.59,20.65,20.65,0,0,1,29,0,19.64,19.64,0,0,1,5.86,14.61A20.15,20.15,0,0,1,397.55,71.62Z"/><path fill="#000a39" d="M334.09,75.05a8.52,8.52,0,0,1,8.33,7.89,8.38,8.38,0,1,1-16.74.56,8.48,8.48,0,0,1,7.95-8.44h.46"/><path d="M272.63.13h-1.12a6.81,6.81,0,0,0-6.81,6.8v77.5a7.37,7.37,0,0,0,7.37,7.37h0a7.37,7.37,0,0,0,7.37-7.37V64.89l23.71,24.64A7.13,7.13,0,0,0,308,91.8a6.71,6.71,0,0,0,6.57-4.31A7,7,0,0,0,313,80.1L291.48,57.66v-.25L311.61,37a7.07,7.07,0,0,0,1.62-7.67A6.7,6.7,0,0,0,307,25.23h-.28a6.82,6.82,0,0,0-4.87,2.05L279.44,50.19V6.93a6.82,6.82,0,0,0-6.81-6.8Z"/><path fill="#000a39" d="M155.65,8.77a6.76,6.76,0,0,0-2,.3l-.87.26A6.92,6.92,0,0,0,147.84,16v8.41a.25.25,0,0,1-.24.25h-5a7.17,7.17,0,0,0-7.18,7.18h0A7.18,7.18,0,0,0,142.6,39h5a.24.24,0,0,1,.24.24V71.09c0,14.13,6.74,20.71,21.2,20.71,1.06,0,2.19,0,3.35-.1a7.17,7.17,0,0,0,6.86-6.41,6.94,6.94,0,0,0-6.91-7.48h-.21l-1.88,0c-5.85,0-7.67-.93-7.67-6.76V39.23a.24.24,0,0,1,.24-.24h9.27a7.18,7.18,0,0,0,7.18-7.18h0a7.17,7.17,0,0,0-7.18-7.18h-9.27a.25.25,0,0,1-.24-.25V15.71a6.94,6.94,0,0,0-6.93-6.94Z"/><path d="M62.11,0a8.52,8.52,0,0,1,8.33,7.88,8.38,8.38,0,1,1-16.74.57A8.48,8.48,0,0,1,61.65,0h.46"/><path fill="#000a39" d="M62.08,25.23a7.38,7.38,0,0,0-7.37,7.37V84.44a7.37,7.37,0,0,0,14.74,0V32.6a7.38,7.38,0,0,0-7.37-7.37Z"/><path  fill="#000a39" d="M20.24,8.77a6.83,6.83,0,0,0-2,.3l-.86.26A6.92,6.92,0,0,0,12.43,16v8.41a.25.25,0,0,1-.25.25h-5A7.17,7.17,0,0,0,0,31.81H0A7.18,7.18,0,0,0,7.18,39h5a.24.24,0,0,1,.25.24V71.09c0,14.13,6.73,20.71,21.19,20.71,1.07,0,2.19,0,3.36-.1a7.18,7.18,0,0,0,6.86-6.41,6.94,6.94,0,0,0-6.91-7.48h-.22l-1.87,0c-5.86,0-7.68-.93-7.68-6.76V39.23a.24.24,0,0,1,.25-.24h9.27a7.19,7.19,0,0,0,7.18-7.18h0a7.18,7.18,0,0,0-7.18-7.18H27.41a.25.25,0,0,1-.25-.25V15.71a6.93,6.93,0,0,0-6.92-6.94Z"/></g></g></svg>