<svg width="393" height="117" viewBox="0 0 393 117" fill="none" xmlns="http://www.w3.org/2000/svg">
<path d="M316.9 31.47H316.07C314.405 31.47 312.807 32.1317 311.629 33.3094C310.452 34.4871 309.79 36.0845 309.79 37.75C309.788 37.8219 309.764 37.8914 309.723 37.9502C309.681 38.009 309.624 38.0544 309.557 38.0809C309.49 38.1074 309.417 38.1139 309.346 38.0995C309.276 38.0852 309.211 38.0506 309.16 38C303.73 32.58 296.58 29.87 287.97 29.87C283.501 29.8189 279.071 30.7046 274.964 32.47C270.858 34.2354 267.168 36.8414 264.13 40.12C260.944 43.3793 258.436 47.2377 256.751 51.4721C255.065 55.7066 254.236 60.2331 254.31 64.79C254.228 69.366 255.053 73.913 256.738 78.168C258.424 82.4231 260.936 86.3018 264.13 89.58C267.179 92.8336 270.875 95.4124 274.981 97.1503C279.087 98.8881 283.512 99.7465 287.97 99.67C296.61 99.67 303.73 96.93 309.16 91.51C309.212 91.4589 309.277 91.4242 309.349 91.4102C309.42 91.3962 309.494 91.4035 309.561 91.4312C309.628 91.459 309.686 91.5059 309.727 91.5661C309.767 91.6264 309.789 91.6973 309.79 91.77C309.793 93.4338 310.456 95.0286 311.633 96.2042C312.81 97.3797 314.406 98.04 316.07 98.04H316.9C318.921 98.04 320.859 97.2372 322.288 95.8082C323.717 94.3791 324.52 92.441 324.52 90.42V39.1C324.521 38.0985 324.325 37.1065 323.943 36.1809C323.561 35.2552 322.999 34.414 322.292 33.7054C321.584 32.9968 320.744 32.4346 319.818 32.051C318.893 31.6674 317.902 31.47 316.9 31.47ZM303.9 79.47C299.994 83.199 294.801 85.2796 289.4 85.2796C284 85.2796 278.807 83.199 274.9 79.47C272.985 77.5385 271.481 75.2397 270.477 72.7118C269.473 70.1838 268.991 67.479 269.06 64.76C268.975 62.0569 269.45 59.3655 270.455 56.8548C271.46 54.344 272.974 52.0681 274.9 50.17C278.767 46.364 283.975 44.2309 289.4 44.2309C294.826 44.2309 300.034 46.364 303.9 50.17C305.832 52.0694 307.349 54.3479 308.358 56.8622C309.366 59.3765 309.844 62.0723 309.76 64.78C309.829 67.4982 309.348 70.2022 308.346 72.7299C307.344 75.2577 305.842 77.557 303.93 79.49L303.9 79.47Z" fill="white"/>
<path d="M345.21 8H344.09C342.286 8 340.555 8.71611 339.278 9.99107C338.001 11.266 337.283 12.9956 337.28 14.8V92.3C337.28 94.2546 338.056 96.1292 339.439 97.5114C340.821 98.8935 342.695 99.67 344.65 99.67C346.605 99.67 348.479 98.8935 349.861 97.5114C351.244 96.1292 352.02 94.2546 352.02 92.3V72.76L375.73 97.4C376.99 98.7581 378.73 99.5722 380.58 99.67C381.989 99.7333 383.382 99.351 384.562 98.5773C385.741 97.8035 386.647 96.6778 387.15 95.36C387.623 94.1071 387.726 92.7449 387.448 91.435C387.169 90.1252 386.521 88.9226 385.58 87.97L364.06 65.53V65.28L384.19 44.87C385.187 43.8939 385.872 42.6449 386.16 41.2801C386.449 39.9153 386.327 38.4957 385.81 37.2C385.295 35.9762 384.427 34.933 383.318 34.203C382.209 33.473 380.908 33.0891 379.58 33.1H379.3C378.393 33.1006 377.495 33.2822 376.658 33.6342C375.822 33.9862 375.065 34.5015 374.43 35.15L352.02 58.06V14.8C352.015 12.9964 351.295 11.2684 350.019 9.99398C348.743 8.71959 347.014 8.00264 345.21 8Z" fill="white"/>
<path d="M228.23 16.64C227.552 16.6392 226.878 16.7403 226.23 16.94L225.36 17.2C223.926 17.6282 222.67 18.5096 221.779 19.7122C220.888 20.9147 220.412 22.3736 220.42 23.87V32.28C220.42 32.3446 220.395 32.4067 220.35 32.4534C220.306 32.5 220.245 32.5274 220.18 32.53H215.18C214.237 32.5287 213.302 32.7135 212.431 33.0739C211.559 33.4342 210.767 33.9631 210.1 34.6301C209.433 35.297 208.904 36.0891 208.544 36.9608C208.184 37.8325 207.999 38.7668 208 39.71C208.005 41.6108 208.764 43.4319 210.11 44.7741C211.456 46.1163 213.279 46.87 215.18 46.87H220.18C220.212 46.87 220.243 46.8762 220.272 46.8883C220.301 46.9003 220.327 46.918 220.35 46.9403C220.372 46.9626 220.39 46.9891 220.402 47.0182C220.414 47.0473 220.42 47.0785 220.42 47.11V78.96C220.42 93.09 227.16 99.67 241.62 99.67C242.68 99.67 243.81 99.67 244.97 99.57C246.693 99.505 248.335 98.8213 249.595 97.644C250.855 96.4667 251.648 94.8748 251.83 93.16C251.904 92.2068 251.781 91.2485 251.468 90.3452C251.154 89.4419 250.658 88.6131 250.009 87.9108C249.36 87.2085 248.573 86.6478 247.697 86.2639C246.822 85.88 245.876 85.6812 244.92 85.68H244.71H242.83C236.98 85.68 235.16 84.75 235.16 78.92V47.1C235.16 47.0685 235.166 47.0373 235.178 47.0082C235.19 46.9791 235.208 46.9526 235.23 46.9303C235.253 46.908 235.279 46.8904 235.308 46.8783C235.337 46.8662 235.368 46.86 235.4 46.86H244.67C246.574 46.86 248.401 46.1036 249.747 44.757C251.094 43.4105 251.85 41.5843 251.85 39.68C251.851 38.7368 251.667 37.8025 251.306 36.9308C250.946 36.0591 250.417 35.267 249.75 34.6001C249.083 33.9331 248.291 33.4042 247.419 33.0439C246.548 32.6835 245.613 32.4987 244.67 32.5H235.4C235.335 32.4974 235.274 32.47 235.23 32.4234C235.185 32.3767 235.16 32.3146 235.16 32.25V23.58C235.16 21.7411 234.43 19.9774 233.131 18.6762C231.832 17.375 230.069 16.6427 228.23 16.64Z" fill="white"/>
<path d="M62.11 6C64.23 6.04133 66.2585 6.87175 67.799 8.32897C69.3394 9.78619 70.2811 11.7655 70.44 13.88C70.5176 15.0025 70.3685 16.1292 70.0013 17.1928C69.6342 18.2564 69.0566 19.2352 68.303 20.0708C67.5495 20.9064 66.6353 21.5817 65.6152 22.0564C64.595 22.531 63.4897 22.7954 62.3651 22.8337C61.2406 22.872 60.1198 22.6834 59.0697 22.2792C58.0196 21.875 57.0617 21.2635 56.253 20.4811C55.4444 19.6987 54.8015 18.7615 54.3629 17.7253C53.9243 16.6891 53.6988 15.5752 53.7 14.45C53.7034 12.295 54.5271 10.2222 56.0037 8.65267C57.4804 7.08315 59.4992 6.13468 61.65 6L62.11 6Z" fill="white"/>
<path d="M62.08 31.23C60.1261 31.2326 58.2531 32.01 56.8715 33.3915C55.4899 34.7731 54.7126 36.6461 54.71 38.6V90.44C54.71 92.3946 55.4864 94.2692 56.8686 95.6514C58.2507 97.0335 60.1253 97.81 62.08 97.81C64.0346 97.81 65.9092 97.0335 67.2913 95.6514C68.6735 94.2692 69.45 92.3946 69.45 90.44V38.6C69.4473 36.6461 68.67 34.7731 67.2884 33.3915C65.9068 32.01 64.0338 31.2326 62.08 31.23Z" fill="white"/>
<path d="M20.24 14.77C19.5621 14.7702 18.8881 14.8713 18.24 15.07L17.38 15.33C15.9442 15.7564 14.6856 16.637 13.793 17.8398C12.9004 19.0425 12.4221 20.5023 12.43 22V30.41C12.43 30.4763 12.4037 30.5399 12.3568 30.5868C12.3099 30.6337 12.2463 30.66 12.18 30.66H7.18001C5.28013 30.6574 3.45687 31.4089 2.11065 32.7495C0.764424 34.0901 0.00530462 35.9102 6.96442e-06 37.81C-0.00130743 38.7538 0.183439 39.6885 0.543679 40.5608C0.903919 41.433 1.43259 42.2257 2.09944 42.8935C2.7663 43.5613 3.55826 44.0911 4.43003 44.4525C5.3018 44.814 6.23627 45 7.18001 45H12.18C12.2124 44.9987 12.2446 45.0039 12.2749 45.0153C12.3052 45.0268 12.3329 45.0443 12.3562 45.0667C12.3796 45.0891 12.3981 45.116 12.4108 45.1458C12.4235 45.1756 12.43 45.2076 12.43 45.24V77.09C12.43 91.22 19.16 97.8 33.62 97.8C34.69 97.8 35.81 97.8 36.98 97.7C38.7025 97.633 40.3434 96.9485 41.6029 95.7716C42.8624 94.5947 43.6564 93.004 43.84 91.29C43.9144 90.3368 43.791 89.3785 43.4776 88.4752C43.1642 87.5719 42.6675 86.7431 42.0188 86.0408C41.37 85.3385 40.583 84.7778 39.7074 84.3939C38.8317 84.01 37.8861 83.8112 36.93 83.81H36.71H34.84C28.98 83.81 27.16 82.88 27.16 77.05V45.23C27.16 45.1976 27.1665 45.1656 27.1792 45.1358C27.1919 45.106 27.2104 45.0791 27.2338 45.0567C27.2572 45.0343 27.2848 45.0168 27.3151 45.0053C27.3454 44.9939 27.3777 44.9887 27.41 44.99H36.68C38.5835 44.9874 40.4082 44.2301 41.7541 42.8841C43.1001 41.5382 43.8574 39.7135 43.86 37.81C43.86 35.9058 43.1035 34.0795 41.757 32.733C40.4105 31.3865 38.5843 30.63 36.68 30.63H27.41C27.3437 30.63 27.2801 30.6037 27.2332 30.5568C27.1863 30.5099 27.16 30.4463 27.16 30.38V21.71C27.1613 20.8 26.9834 19.8985 26.6363 19.0573C26.2893 18.216 25.7799 17.4513 25.1373 16.8068C24.4947 16.1624 23.7315 15.6508 22.8912 15.3014C22.051 14.9519 21.1501 14.7713 20.24 14.77Z" fill="white"/>
<path d="M202 58C202 25.9675 176.033 0 144 0C111.967 0 86 25.9675 86 58C86 90.0325 111.967 116 144 116C176.033 116 202 90.0325 202 58Z" fill="#4921DA"/>
<path d="M166.079 90.1062L147.067 71.0951C146.465 70.4911 146.127 69.6731 146.127 68.8202C146.127 67.9674 146.465 67.1493 147.067 66.5453L166.066 47.5471C167.438 46.1743 168.208 44.313 168.208 42.3722C168.208 40.4315 167.438 38.5701 166.066 37.1973C165.386 36.5171 164.579 35.9775 163.69 35.6093C162.802 35.2411 161.849 35.0516 160.888 35.0516C159.926 35.0516 158.974 35.2411 158.085 35.6093C157.197 35.9775 156.389 36.5171 155.709 37.1973L129.242 63.6582C128.562 64.3381 128.022 65.1453 127.654 66.0338C127.286 66.9223 127.096 67.8746 127.096 68.8363C127.096 69.7981 127.286 70.7504 127.654 71.6389C128.022 72.5274 128.562 73.3346 129.242 74.0144L134.398 79.17L155.664 100.437C157.039 101.807 158.901 102.577 160.842 102.577C162.784 102.577 164.646 101.807 166.021 100.437C167.394 99.0724 168.172 97.2195 168.182 95.2834C168.193 93.3474 167.437 91.4859 166.079 90.1062Z" fill="#4EFFB8"/>
<path d="M134.417 20.7125C134.417 16.6693 131.139 13.3916 127.096 13.3916C123.053 13.3916 119.775 16.6693 119.775 20.7125V46.6385C119.775 50.6817 123.053 53.9594 127.096 53.9594C131.139 53.9594 134.417 50.6817 134.417 46.6385V20.7125Z" fill="#4EFFB8"/>
</svg>
