<svg width="256" height="256" viewBox="0 0 256 256" fill="none" xmlns="http://www.w3.org/2000/svg">
<path d="M256 114.174V219.78C248.558 222.335 240.266 224.464 231.124 226.594C221.98 228.723 212.412 230.426 202.632 231.917C192.851 233.407 183.07 234.472 173.29 235.323C163.509 236.174 154.153 236.6 145.436 236.6C131.828 236.6 118.857 235.749 106.525 233.833C94.1929 231.917 82.4985 229.149 71.6548 225.529C60.8108 221.697 51.03 217.012 42.3124 211.051C33.5947 205.089 25.9404 198.276 19.5615 190.185C13.3954 182.094 8.50501 172.939 4.89038 162.506C1.27575 152.073 0 140.788 0 127.8C0 115.025 1.701 103.315 5.31563 92.8821C8.93026 82.4491 14.0333 73.2938 20.412 65.203C26.7908 57.1121 34.6578 50.2986 43.8008 44.3371C52.9436 38.5883 62.9371 33.6912 73.781 29.8587C84.6247 26.0262 96.3191 23.2583 108.651 21.555C120.984 19.8517 133.741 19 146.711 19C166.911 19 185.834 20.7033 203.057 24.11C220.492 27.5167 236.439 31.9879 250.897 37.5237V88.1979C245.156 85.0041 238.778 81.8103 231.549 78.8296C224.319 75.8486 216.664 73.0807 208.16 70.7387C199.655 68.3966 190.725 66.4805 181.157 65.203C171.588 63.7124 161.382 63.0736 150.751 63.0736C137.568 63.0736 125.874 63.9254 116.093 65.8417C106.313 67.7578 97.8076 70.3128 90.791 73.5066C83.7743 76.7004 78.0335 80.5328 73.5684 84.7913C69.1032 89.0495 65.4885 93.5209 62.9371 98.4179C60.3855 103.315 58.4719 108.212 57.6215 113.109C56.5583 118.219 56.133 122.903 56.133 127.8C56.133 131.846 56.5583 136.317 57.4088 141.214C58.2593 146.111 59.9604 150.795 62.2991 155.692C64.638 160.589 68.0401 165.061 72.0799 169.532C76.3324 174.003 81.8607 177.836 88.4521 181.242C95.256 184.649 103.336 187.417 112.904 189.333C122.472 191.25 133.741 192.314 146.924 192.314C153.515 192.314 159.256 192.101 164.146 191.675C169.037 191.25 173.502 190.824 177.542 189.972C181.582 189.333 185.409 188.482 189.024 187.417C192.638 186.352 196.253 185.288 200.08 184.223V159.525H137.781V114.174H256Z" fill="#0066FF"/>
</svg>
