<svg width="32" height="32" viewBox="0 0 32 32" fill="none" xmlns="http://www.w3.org/2000/svg">
<path d="M32 13.8967V27.0975C31.0697 27.4169 30.0332 27.6831 28.8905 27.9492C27.7474 28.2153 26.5516 28.4283 25.329 28.6147C24.1064 28.8009 22.8838 28.9339 21.6612 29.0404C20.4386 29.1468 19.2692 29.2 18.1794 29.2C16.4784 29.2 14.8572 29.0936 13.3157 28.8541C11.7741 28.6147 10.3123 28.2686 8.95685 27.8161C7.60135 27.3371 6.37875 26.7515 5.28905 26.0063C4.19934 25.2611 3.24254 24.4095 2.44519 23.3981C1.67442 22.3868 1.06313 21.2423 0.611297 19.9382C0.159469 18.6341 0 17.2235 0 15.6001C0 14.0032 0.212625 12.5394 0.664454 11.2353C1.11628 9.93113 1.75416 8.78672 2.5515 7.77537C3.34885 6.76402 4.33223 5.91233 5.4751 5.16714C6.61795 4.44854 7.86714 3.8364 9.22263 3.35734C10.5781 2.87828 12.0399 2.53229 13.5814 2.31937C15.123 2.10646 16.7176 2 18.3389 2C20.8638 2 23.2293 2.21292 25.3821 2.63875C27.5615 3.06458 29.5549 3.62349 31.3621 4.31547V10.6497C30.6445 10.2505 29.8473 9.85129 28.9436 9.4787C28.0398 9.10608 27.083 8.76009 26.02 8.46734C24.9569 8.17457 23.8406 7.93506 22.6446 7.77537C21.4485 7.58905 20.1728 7.5092 18.8439 7.5092C17.196 7.5092 15.7342 7.61568 14.5117 7.85522C13.2891 8.09472 12.2259 8.4141 11.3489 8.81333C10.4718 9.21256 9.75419 9.6916 9.19604 10.2239C8.6379 10.7562 8.18606 11.3151 7.86714 11.9272C7.54819 12.5394 7.30899 13.1515 7.20268 13.7636C7.06979 14.4024 7.01663 14.9879 7.01663 15.6001C7.01663 16.1057 7.06979 16.6646 7.1761 17.2768C7.28241 17.8889 7.49505 18.4744 7.78739 19.0866C8.07975 19.6987 8.50501 20.2576 9.00999 20.8165C9.54155 21.3754 10.2326 21.8545 11.0565 22.2803C11.907 22.7061 12.917 23.0521 14.113 23.2917C15.309 23.5312 16.7176 23.6642 18.3655 23.6642C19.1894 23.6642 19.907 23.6376 20.5183 23.5844C21.1296 23.5312 21.6878 23.4779 22.1928 23.3715C22.6977 23.2917 23.1761 23.1852 23.628 23.0521C24.0798 22.9191 24.5316 22.786 25.01 22.6529V19.5656H17.2226V13.8967H32Z" fill="#0066FF"/>
</svg>
