<svg width="64" height="64" viewBox="0 0 64 64" fill="none" xmlns="http://www.w3.org/2000/svg">
<path d="M64 28.7934V55.1951C62.1394 55.8338 60.0664 56.3661 57.7809 56.8984C55.4949 57.4307 53.1031 57.8565 50.6579 58.2293C48.2127 58.6018 45.7676 58.8679 43.3224 59.0807C40.8772 59.2936 38.5383 59.4 36.3589 59.4C32.9569 59.4 29.7144 59.1872 26.6313 58.7082C23.5482 58.2293 20.6246 57.5371 17.9137 56.6323C15.2027 55.6741 12.7575 54.5031 10.5781 53.0127C8.39867 51.5222 6.48509 49.8189 4.89038 47.7962C3.34885 45.7735 2.12625 43.4847 1.22259 40.8764C0.318938 38.2682 0 35.4471 0 32.2001C0 29.0064 0.42525 26.0787 1.32891 23.4705C2.23256 20.8623 3.50832 18.5734 5.103 16.5507C6.6977 14.528 8.66445 12.8247 10.9502 11.3343C13.2359 9.89708 15.7343 8.67281 18.4453 7.71468C21.1562 6.75656 24.0798 6.06458 27.1629 5.63875C30.2459 5.21292 33.4353 5 36.6778 5C41.7277 5 46.4586 5.42583 50.7643 6.2775C55.1231 7.12917 59.1098 8.24698 62.7242 9.63093V22.2995C61.2891 21.501 59.6946 20.7026 57.8871 19.9574C56.0797 19.2122 54.166 18.5202 52.04 17.9347C49.9137 17.3491 47.6812 16.8701 45.2891 16.5507C42.8971 16.1781 40.3456 16.0184 37.6878 16.0184C34.3921 16.0184 31.4685 16.2314 29.0233 16.7104C26.5781 17.1894 24.4519 17.8282 22.6978 18.6267C20.9436 19.4251 19.5084 20.3832 18.3921 21.4478C17.2758 22.5124 16.3721 23.6302 15.7343 24.8545C15.0964 26.0787 14.618 27.303 14.4054 28.5273C14.1396 29.8048 14.0333 30.9758 14.0333 32.2001C14.0333 33.2115 14.1396 34.3292 14.3522 35.5535C14.5648 36.7778 14.9901 37.9488 15.5748 39.1731C16.1595 40.3974 17.01 41.5152 18.02 42.633C19.0831 43.7508 20.4652 44.7089 22.113 45.5606C23.814 46.4123 25.834 47.1042 28.226 47.5833C30.618 48.0624 33.4353 48.3285 36.731 48.3285C38.3788 48.3285 39.8141 48.2753 41.0366 48.1688C42.2593 48.0624 43.3755 47.9559 44.3855 47.743C45.3955 47.5833 46.3523 47.3704 47.2559 47.1042C48.1596 46.8381 49.0632 46.572 50.0201 46.3058V40.1312H34.4453V28.7934H64Z" fill="#0066FF"/>
</svg>
