<svg width="443" height="291" viewBox="0 0 443 291" fill="none" xmlns="http://www.w3.org/2000/svg">
<path d="M434.192 115.276L237.673 2.04225C231.991 -1.227 224.555 -0.553707 216.736 3.94992C201.241 12.8824 188.632 34.6748 188.632 52.5322C188.632 61.5095 191.765 68.3024 197.44 71.5716L381.447 177.586L377.564 179.831C373.066 182.442 365.907 183.474 359.415 182.457L216.406 160.013C206.421 158.435 195.933 160.103 188.347 164.465L182.567 167.801C182.432 167.629 182.29 167.464 182.147 167.3L181.818 166.933L181.128 166.185L180.686 165.714L180.386 165.407L180.221 165.243L180.108 165.13L179.599 164.629L179.111 164.173L178.474 163.612L178.429 163.574L178.339 163.499L178.174 163.357L177.897 163.095L177.515 162.766L177.455 162.721C177.125 162.452 176.787 162.205 176.45 161.973L176.345 161.891L176.12 161.726L175.678 161.397L174.928 160.926L174.734 160.799L173.826 160.245C173.392 159.998 172.972 159.774 172.545 159.564L172.327 159.467L172.2 159.4L171.952 159.288H171.907L171.495 159.093L171.308 159.011L170.715 158.779L170.611 158.734L170.401 158.607L170.018 158.465L169.538 158.308L169.381 158.263L169.081 158.173L168.834 158.098L168.354 157.986L167.837 157.874H167.777H167.732C167.236 157.781 166.736 157.716 166.233 157.679C165.943 157.664 165.653 157.664 165.363 157.679H164.831C164.457 157.688 164.084 157.715 163.714 157.761C162.202 157.929 160.745 158.429 159.449 159.224C158.153 160.019 157.05 161.091 156.217 162.362L147.642 175.207L4.46021 257.694C1.65655 259.317 0.112305 262.587 0.112305 266.911C0.112305 275.245 5.7796 285.037 13.0136 289.212C14.8887 290.366 17.0336 291.011 19.2356 291.082C20.6203 291.097 21.9841 290.743 23.1862 290.057L166.368 207.571L181.803 206.576C188.377 206.157 192.463 200.695 192.463 192.362C192.38 188.465 191.619 184.612 190.214 180.975L195.993 177.646C200.491 175.035 207.635 174.018 214.142 175.028L357.151 197.471C359.613 197.857 362.102 198.049 364.595 198.047C372.151 198.047 379.505 196.297 385.203 193.02L397.039 186.205C398.626 186.7 400.279 186.952 401.942 186.953C405.998 186.953 410.473 185.621 414.978 183.025C430.481 174.093 443.082 152.3 443.082 134.443C443 125.316 439.874 118.553 434.192 115.276ZM199.082 68.7438C194.449 66.0805 191.908 60.32 191.908 52.5322C191.908 35.7147 203.782 15.1865 218.37 6.77777C222.418 4.45115 226.286 3.26913 229.735 3.26913C231.939 3.23608 234.112 3.78863 236.032 4.8701L424.281 113.346C424.109 113.346 423.929 113.391 423.749 113.421L423.067 113.511L422.4 113.638L421.717 113.773L421.028 113.945L420.353 114.117L419.604 114.349L418.929 114.558L418.179 114.842L417.535 115.082L416.702 115.441L416.118 115.695C415.803 115.845 415.48 116.002 415.166 116.166L414.686 116.398C414.206 116.653 413.726 116.915 413.239 117.191C397.744 126.116 385.135 147.909 385.135 165.766C385.135 166.664 385.135 167.539 385.232 168.392C385.232 168.669 385.292 168.938 385.322 169.215C385.375 169.784 385.435 170.345 385.525 170.891C385.57 171.205 385.63 171.504 385.69 171.803C385.78 172.297 385.885 172.791 385.997 173.3C386.072 173.606 386.155 173.898 386.237 174.19C386.32 174.482 386.327 174.586 386.387 174.773L384.693 175.746L199.082 68.7438ZM14.5353 286.302C8.32831 282.718 3.29073 273.988 3.29073 266.851C3.29073 263.739 4.25776 261.472 6.09437 260.417H6.1394L6.25186 260.365C6.49341 260.261 6.74446 260.181 7.0015 260.125H7.1589H7.36882H7.42876H7.6762H8.14097C8.39147 260.127 8.64169 260.142 8.89061 260.17H8.95805C9.27919 260.212 9.59725 260.274 9.91011 260.357C10.619 260.547 11.3052 260.813 11.9566 261.15C12.716 261.556 13.445 262.016 14.1381 262.527C15.6787 263.674 17.0601 265.02 18.2461 266.529C18.8711 267.295 19.4542 268.094 19.9927 268.923C20.465 269.671 20.9373 270.472 21.4246 271.399C21.9118 272.327 22.2792 273.18 22.549 273.861C22.8536 274.612 23.1188 275.379 23.3436 276.157C23.6749 277.273 23.9254 278.41 24.0932 279.561L24.1982 280.93C24.1982 281.125 24.1982 281.304 24.1982 281.491C24.1982 281.678 24.1982 281.858 24.1982 282.038C24.1982 282.217 24.1533 282.389 24.1308 282.561C24.1083 282.733 24.1308 282.905 24.0633 283.07C23.9959 283.234 23.9883 283.384 23.9584 283.541C23.9284 283.698 23.8909 283.863 23.8459 284.013C23.8009 284.162 23.7485 284.289 23.696 284.431C23.6435 284.574 23.5985 284.731 23.546 284.865C23.4935 285 23.4186 285.112 23.3586 285.232C23.2986 285.352 23.2312 285.501 23.1637 285.628C23.0962 285.756 23.0138 285.838 22.9389 285.943C22.8657 286.06 22.7856 286.172 22.6989 286.279C22.6165 286.377 22.5265 286.466 22.4366 286.556C22.3466 286.646 22.2567 286.743 22.1592 286.825C22.0643 286.907 21.9641 286.982 21.8593 287.05C21.7518 287.136 21.6392 287.216 21.522 287.289C19.7229 288.157 17.234 287.858 14.5353 286.302ZM27.1443 283.841C27.2268 283.422 27.2868 282.988 27.3317 282.546C27.3317 282.479 27.3317 282.419 27.3317 282.352C27.3838 281.82 27.4088 281.285 27.4067 280.751V279.255C27.4067 279.21 27.4067 279.157 27.4067 279.105L27.3617 278.634C27.3617 278.26 27.2943 277.841 27.2268 277.324L27.1743 276.995C27.0852 276.352 26.9576 275.715 26.792 275.088C26.568 274.17 26.2927 273.266 25.9673 272.379L25.4201 270.951L24.7754 269.552C24.2282 268.482 23.711 267.554 23.1787 266.709C22.5699 265.751 21.9092 264.827 21.1996 263.941C19.7844 262.18 18.1378 260.617 16.3045 259.295C15.8922 259.003 15.4724 258.734 15.0451 258.48L14.6403 258.255C14.3479 258.091 14.0481 257.933 13.7483 257.784L13.2985 257.574C12.9911 257.44 12.6837 257.32 12.3839 257.208L12.009 257.066L11.8817 257.021L149.471 177.721L150.738 176.973H150.812L150.91 176.928C151.152 176.826 151.403 176.745 151.66 176.689C152.637 176.486 153.65 176.529 154.606 176.816C155.316 177.005 156.002 177.273 156.652 177.616C157.412 178.019 158.141 178.477 158.834 178.985C160.374 180.132 161.756 181.478 162.942 182.988C163.565 183.758 164.148 184.559 164.688 185.389C165.161 186.137 165.633 186.93 166.12 187.858C166.607 188.786 166.967 189.638 167.245 190.319C167.548 191.071 167.813 191.837 168.039 192.616C168.376 193.73 168.627 194.868 168.789 196.02L168.901 197.404C168.901 197.621 168.901 197.823 168.901 198.032C168.901 198.242 168.901 198.361 168.901 198.518C168.901 198.676 168.856 198.885 168.834 199.065C168.811 199.244 168.834 199.401 168.766 199.551C168.699 199.7 168.691 199.888 168.654 200.052C168.616 200.217 168.586 200.359 168.549 200.501C168.512 200.643 168.437 200.808 168.384 200.957C168.332 201.107 168.294 201.227 168.242 201.354C168.189 201.481 168.114 201.608 168.047 201.743C167.979 201.877 167.927 201.997 167.859 202.109C167.792 202.222 167.702 202.326 167.627 202.431C167.554 202.548 167.474 202.66 167.387 202.768C167.305 202.873 167.2 202.955 167.11 203.052C167.02 203.149 166.937 203.232 166.847 203.314C166.655 203.476 166.45 203.621 166.233 203.748L27.2268 283.796L27.1443 283.841ZM181.473 203.239L170.506 203.942L170.655 203.643C170.82 203.359 170.97 203.06 171.113 202.753C171.18 202.588 171.248 202.416 171.308 202.244C171.427 201.938 171.529 201.626 171.615 201.309C171.667 201.122 171.72 200.942 171.765 200.748C171.847 200.396 171.907 200 171.96 199.648C171.96 199.476 172.02 199.311 172.035 199.132C172.098 198.558 172.131 197.981 172.132 197.404V197.351C172.132 197.194 172.132 196.701 172.132 195.923C172.132 195.878 172.132 195.825 172.132 195.78V195.294C172.132 194.92 172.065 194.501 171.997 193.992L171.945 193.656C171.853 193.015 171.723 192.381 171.555 191.756C171.333 190.836 171.06 189.929 170.738 189.04L169.546 186.22C168.999 185.15 168.474 184.215 167.942 183.377C167.336 182.418 166.678 181.494 165.97 180.609C164.554 178.846 162.905 177.283 161.068 175.963C159.404 174.745 157.516 173.866 155.513 173.374C155.068 173.275 154.617 173.205 154.163 173.165H154.058C153.684 173.143 153.308 173.143 152.934 173.165H152.844L158.841 164.128C158.931 164.001 159.021 163.866 159.118 163.739C159.207 163.677 159.288 163.604 159.358 163.522L159.726 163.118L159.771 163.073L160.003 162.856L160.101 162.766C161.363 161.71 162.951 161.121 164.598 161.098C168.811 160.874 174.569 164.143 178.962 169.222C182.95 173.636 185.921 178.868 187.665 184.551C188.193 186.261 188.575 188.013 188.804 189.788C188.825 189.935 188.865 190.078 188.924 190.214C188.992 190.963 189.029 191.711 189.029 192.384C189.074 198.825 186.233 202.932 181.473 203.239ZM383.493 190.08C376.544 194.067 366.859 195.586 357.571 194.135L214.562 171.691C212.742 171.409 210.902 171.269 209.059 171.272C203.55 171.272 198.115 172.492 194.277 174.706L188.879 177.811C188.774 177.564 188.647 177.324 188.527 177.063L188.212 176.412C187.39 174.765 186.466 173.171 185.446 171.639C185.311 171.429 185.176 171.235 185.041 171.033C184.906 170.831 184.741 170.584 184.591 170.367L189.981 167.255C196.938 163.253 206.623 161.734 215.896 163.2L358.905 185.644C366.094 186.766 374.055 185.584 379.198 182.651L385.532 179L389.213 176.883L391.35 175.656L418.194 160.185C418.443 160.042 418.65 159.836 418.794 159.588C418.938 159.34 419.014 159.058 419.014 158.771C419.014 158.485 418.938 158.203 418.794 157.955C418.65 157.706 418.443 157.5 418.194 157.357L406.2 150.452V150.393C406.395 149.831 406.627 149.285 406.875 148.739C406.95 148.567 407.025 148.403 407.107 148.238C407.347 147.744 407.602 147.25 407.857 146.742L407.917 146.637L407.962 146.547C408.007 146.465 408.067 146.383 408.112 146.3C408.389 145.844 408.674 145.395 408.974 144.954L409.311 144.482C409.663 143.996 410.061 143.525 410.405 143.076L410.45 143.024L422.894 150.191L423.044 150.28C426.56 152.338 428.577 155.427 428.577 158.764C428.577 162.1 426.53 165.243 422.962 167.292L395.892 182.898L383.493 190.08ZM413.554 140.136L413.899 139.874C414.229 139.65 414.558 139.433 414.896 139.238C417.205 137.914 419.281 137.645 420.758 138.49C422.235 139.335 423.007 141.273 423.007 143.921C423.007 144.295 423.007 144.669 422.954 145.059C422.954 145.186 422.954 145.313 422.909 145.44C422.909 145.702 422.849 145.964 422.804 146.233C422.807 146.273 422.807 146.313 422.804 146.353L415.218 141.976L412.887 140.63L413.554 140.136ZM405.165 154.964C405.165 154.821 405.21 154.672 405.225 154.522C405.24 154.372 405.285 154.013 405.323 153.774C405.326 153.759 405.326 153.744 405.323 153.729L414.094 158.786L408.554 161.981L408.314 161.936C408.192 161.905 408.072 161.868 407.954 161.824C407.812 161.772 407.674 161.71 407.542 161.637C407.435 161.584 407.333 161.524 407.234 161.457C407.108 161.373 406.988 161.281 406.875 161.18C406.785 161.098 406.687 161.023 406.605 160.933C406.522 160.844 406.395 160.687 406.297 160.559C406.219 160.461 406.146 160.359 406.08 160.253C405.99 160.111 405.915 159.946 405.833 159.781C405.769 159.669 405.714 159.551 405.668 159.43C405.593 159.25 405.533 159.048 405.473 158.854C405.413 158.659 405.39 158.607 405.36 158.465C405.33 158.323 405.27 157.993 405.233 157.717C405.233 157.597 405.188 157.485 405.173 157.357C405.127 156.953 405.104 156.545 405.105 156.138C405.113 155.764 405.135 155.367 405.165 154.964ZM413.262 180.07C409.056 182.494 404.948 183.683 401.357 183.556L424.656 170.09C424.911 169.951 425.161 169.801 425.406 169.641C421.985 173.776 417.886 177.302 413.284 180.07H413.262ZM431.755 160.559C431.755 160.477 431.755 160.387 431.755 160.298C431.905 159.258 431.905 158.202 431.755 157.163C431.755 156.976 431.68 156.804 431.643 156.624C431.586 156.279 431.511 155.937 431.418 155.599C431.358 155.382 431.275 155.173 431.2 154.956C431.126 154.739 431.006 154.387 430.878 154.103C430.751 153.819 430.661 153.647 430.541 153.415C430.421 153.183 430.286 152.921 430.143 152.667C430.001 152.412 429.844 152.195 429.679 151.964C429.514 151.732 429.379 151.537 429.214 151.328C429.049 151.118 428.839 150.864 428.637 150.639C428.434 150.415 428.284 150.258 428.104 150.071C427.925 149.884 427.655 149.637 427.415 149.42C427.175 149.203 427.002 149.068 426.785 148.889C426.568 148.709 426.305 148.515 426.035 148.335L425.758 148.126C425.758 148.126 425.758 148.073 425.758 148.051C425.908 147.408 426.013 146.787 426.095 146.166L426.14 145.754C426.211 145.143 426.248 144.529 426.253 143.914C426.253 140.046 424.866 137.114 422.332 135.685C419.798 134.256 416.56 134.495 413.202 136.433C406.8 140.121 401.785 148.792 401.785 156.168C401.785 156.564 401.785 156.916 401.837 157.32C401.837 157.432 401.837 157.537 401.837 157.649C401.837 157.919 401.905 158.188 401.949 158.45C401.949 158.554 401.949 158.659 402.002 158.764C402.069 159.108 402.144 159.445 402.242 159.766C402.339 160.081 402.452 160.38 402.572 160.672C402.605 160.761 402.642 160.848 402.684 160.933C402.782 161.15 402.887 161.36 402.992 161.562L403.126 161.801C403.279 162.06 403.447 162.31 403.629 162.549C403.804 162.776 403.992 162.993 404.191 163.2L404.378 163.38C404.538 163.529 404.703 163.672 404.873 163.806C404.91 163.845 404.95 163.88 404.993 163.911L392.249 171.25L389.251 173C389.254 172.963 389.254 172.926 389.251 172.888C389.251 172.746 389.191 172.596 389.153 172.454C389.026 171.946 388.913 171.414 388.823 170.876C388.778 170.651 388.748 170.427 388.711 170.202C388.636 169.694 388.576 169.185 388.531 168.661C388.531 168.437 388.486 168.22 388.471 167.996C388.419 167.247 388.381 166.499 388.381 165.714C388.381 148.896 400.255 128.376 414.851 119.967C415.323 119.698 415.788 119.443 416.253 119.219L416.687 119.002L417.647 118.545L418.142 118.329L419.034 117.962L419.521 117.775L420.451 117.461L420.863 117.326C421.29 117.191 421.71 117.079 422.13 116.982H422.175C422.61 116.877 423.037 116.795 423.464 116.728L423.839 116.675L424.724 116.563H425.166C425.436 116.563 425.698 116.563 425.961 116.563H426.358C426.859 116.566 427.359 116.596 427.857 116.653H428.082C428.524 116.713 428.959 116.795 429.386 116.892L429.619 116.945C430.075 117.065 430.523 117.212 430.961 117.386L431.238 117.498C431.681 117.68 432.111 117.89 432.527 118.127C437.153 120.79 439.701 126.55 439.701 134.338C439.701 142.889 436.635 152.397 431.695 160.784C431.74 160.694 431.74 160.627 431.755 160.559Z" fill="#0066FF"/>
</svg>
