<svg width="181" height="180" viewBox="0 0 181 180" fill="none" xmlns="http://www.w3.org/2000/svg">
<g clip-path="url(#clip0_19_96)">
<path d="M180.5 90C180.5 40.2944 140.206 0 90.5 0C40.7944 0 0.5 40.2944 0.5 90C0.5 139.706 40.7944 180 90.5 180C140.206 180 180.5 139.706 180.5 90Z" fill="#FF0032"/>
<path d="M124.76 139.82L95.26 110.32C94.3257 109.383 93.801 108.113 93.801 106.79C93.801 105.467 94.3257 104.197 95.26 103.26L124.74 73.78C126.869 71.6498 128.065 68.7615 128.065 65.75C128.065 62.7385 126.869 59.8502 124.74 57.72C123.685 56.6645 122.432 55.8271 121.054 55.2558C119.675 54.6845 118.197 54.3905 116.705 54.3905C115.213 54.3905 113.735 54.6845 112.356 55.2558C110.978 55.8271 109.725 56.6645 108.67 57.72L67.6 98.78C66.5444 99.835 65.7071 101.088 65.1358 102.466C64.5645 103.845 64.2704 105.323 64.2704 106.815C64.2704 108.307 64.5645 109.785 65.1358 111.164C65.7071 112.542 66.5444 113.795 67.6 114.85L75.6 122.85L108.6 155.85C110.733 157.977 113.623 159.171 116.635 159.171C119.647 159.171 122.537 157.977 124.67 155.85C126.802 153.733 128.008 150.858 128.025 147.854C128.041 144.849 126.868 141.961 124.76 139.82Z" fill="#000A39"/>
<path d="M75.63 32.14C75.63 25.866 70.5439 20.78 64.27 20.78C57.996 20.78 52.91 25.866 52.91 32.14V72.37C52.91 78.644 57.996 83.73 64.27 83.73C70.5439 83.73 75.63 78.644 75.63 72.37V32.14Z" fill="#000A39"/>
</g>
<defs>
<clipPath id="clip0_19_96">
<rect width="180" height="180" fill="white" transform="translate(0.5)"/>
</clipPath>
</defs>
</svg>
