<svg xmlns="http://www.w3.org/2000/svg" viewBox="0 0 185 185"><defs><style>.cls-1{fill:none;stroke:#1b75bb;stroke-miterlimit:10;stroke-width:5px;}.cls-2{fill:#1b75bb;}</style></defs><g id="Слой_2" data-name="Слой 2"><g id="Слой_1-2" data-name="Слой 1"><rect class="cls-1" x="2.5" y="2.5" width="180" height="180" rx="90"/><path class="cls-2" d="M126.76,142.32l-29.5-29.5a5,5,0,0,1,0-7.06l29.48-29.48a11.36,11.36,0,0,0,0-16.06h0a11.36,11.36,0,0,0-16.07,0L69.6,101.28a11.36,11.36,0,0,0,0,16.07l8,8,0,0,33,33a11.38,11.38,0,0,0,16.07,0h0A11.36,11.36,0,0,0,126.76,142.32Z"/><rect class="cls-2" x="54.91" y="23.28" width="22.72" height="62.95" rx="11.36"/></g></g></svg>