<svg width="186" height="185" viewBox="0 0 186 185" fill="none" xmlns="http://www.w3.org/2000/svg">
<path d="M183 92.5C183 42.7944 142.706 2.5 93 2.5C43.2944 2.5 3 42.7944 3 92.5C3 142.206 43.2944 182.5 93 182.5C142.706 182.5 183 142.206 183 92.5Z" stroke="#000A39" stroke-width="5" stroke-miterlimit="10"/>
<path d="M127.26 142.32L97.76 112.82C96.8257 111.883 96.3011 110.613 96.3011 109.29C96.3011 107.967 96.8257 106.697 97.76 105.76L127.24 76.28C129.369 74.1498 130.565 71.2615 130.565 68.25C130.565 65.2385 129.369 62.3502 127.24 60.22C126.185 59.1645 124.932 58.3271 123.554 57.7558C122.175 57.1845 120.697 56.8905 119.205 56.8905C117.713 56.8905 116.235 57.1845 114.856 57.7558C113.478 58.3271 112.225 59.1645 111.17 60.22L70.1 101.28C69.0444 102.335 68.2071 103.588 67.6358 104.966C67.0645 106.345 66.7705 107.823 66.7705 109.315C66.7705 110.807 67.0645 112.285 67.6358 113.664C68.2071 115.042 69.0444 116.295 70.1 117.35L78.1 125.35L111.1 158.35C113.233 160.477 116.123 161.671 119.135 161.671C122.147 161.671 125.037 160.477 127.17 158.35C129.302 156.233 130.508 153.358 130.525 150.354C130.542 147.349 129.368 144.461 127.26 142.32Z" fill="#000A39"/>
<path d="M78.13 34.64C78.13 28.366 73.044 23.28 66.77 23.28C60.496 23.28 55.41 28.366 55.41 34.64V74.87C55.41 81.144 60.496 86.23 66.77 86.23C73.044 86.23 78.13 81.144 78.13 74.87V34.64Z" fill="#000A39"/>
</svg>
